<svg xmlns="http://www.w3.org/2000/svg" viewBox="0 0 128 128" role="img" aria-label="SLR Metaliks">
  <defs>
    <linearGradient id="copper" x1="0" x2="1" y1="0" y2="1">
      <stop stop-color="#d6a366"/><stop offset="1" stop-color="#9e5135"/>
    </linearGradient>
  </defs>
  <rect width="128" height="128" rx="25" fill="#073f38"/>
  <path d="M34 104C13 94 15 64 35 45c13-13 30-19 49-18-16 4-29 12-37 25-9 14-9 30-1 45 5 9 9 16 11 24-9-6-15-11-23-17Z" fill="url(#copper)"/>
  <path d="M55 29c17 2 30 10 39 24-12-5-23-5-33 1 4-9 2-17-6-25Z" fill="url(#copper)"/>
  <text x="58" y="91" fill="#fff" font-family="Arial, Helvetica, sans-serif" font-size="31" font-weight="800" letter-spacing="-2">SLR</text>
</svg>
